# xmcd
#
# Track frame offsets: 
#        179
#        13731
#        22520
#        33083
#        45249
#        67891
#        79835
#        90835
#        102312
#        114152
#        128842
#
# Disc length: 1877 seconds
#
# Revision: 0
# Processed by: cddbd v1.5.2PL0 Copyright (c) Steve Scherf et al.
# Submitted via: ExactAudioCopy v1.0b3
#
DISCID=6907530b
DTITLE=Johnny Cash - Happiness Is You
DYEAR=1966
DGENRE=Country
TTITLE0=Happiness Is You
TTITLE1=Guess Things Happen That Way
TTITLE2=Ancient History
TTITLE3=You Comb Her Hair
TTITLE4=She Came From the Mountains
TTITLE5=For Lovin' Me
TTITLE6=No One Will Ever Know
TTITLE7=Is This My Destiny
TTITLE8=A Wound Time Can't Erase
TTITLE9=Happy To Be With You
TTITLE10=Wabash Cannon Ball
EXTD=
EXTT0=
EXTT1=
EXTT2=
EXTT3=
EXTT4=
EXTT5=
EXTT6=
EXTT7=
EXTT8=
EXTT9=
EXTT10=
PLAYORDER=
